<?xml version="1.0" encoding="UTF-8"?>
<svg version="1.1" viewBox="0 0 2048 2048" width="1280" height="1280" xmlns="http://www.w3.org/2000/svg">
<path transform="translate(605)" d="m0 0h23l9 2 15 4 15 6 11 7 11 10 7 11 4 12 1 9 1 60 3 38 4 29 6 28 7 24 9 22 10 18 8 10 1 3h2v2h2v2l4 1 11-12 7-8 9-10 4-5h2l2-4 7-8h2l2-4 40-40 8-7 12-11 28-22 15-10 17-8 7-2h12l11 4 11 7 17 13 14 10 13 9-4-16-8-26-6-16-8-18-10-22-3-12v-12l3-12 8-14 9-9 10-7 19-10 21-7 26-6 17-3h46l3 3 8 4 10 8 10 13 8 14 8 19 7 22 6 26 3 15v3h2l2-12 11-43 6-15 8-11 11-9 13-6 9-2h14l20 4 24 8 16 8 14 10 8 8 9 13 5 12 3 13v16l-1 5 36 7 11 4 10 6 9 9 5 9 4 11 1 6v8l-4 16-20 45-18 41-13 30-7 16-1 5 45 45 7 8 3 3h15l20-1h45l29 2 30 4 28 6 26 8 22 9 16 8 14 8 14 10 10 9 5 9 1 4v12l-4 11-16 33-11 23-19 39-8 11-10 6-12 2-33-5h-7l5 10 12 21 18 35 16 34 14 33 10 26 10 29 12 39 10 40 15 70 12 47 19 65 12 45 11 49 8 44 7 48 4 39 3 42 1 30v43l-1 32-4 53-5 40-7 43-8 39-11 44-13 43-13 38-15 38-9 21-11 24-9 19-20 38-12 21-12 20-12 19-12 18-13 19-8 10-11 13-8 8-8 7-13 10-17 11-15 8-20 8-16 5-20 5-9 2h-53l-36-9-25-9-42-16-29-12-24-10-27-12-33-15-47-23-19-10-26-14-45-26-19-12-21-13-19-13-12-8-17-12-19-14-12-9-28-22-13-11-14-12-10-9-8-7-10-9-15-14-38-38 1 6v11l-2 12-7 14-6 8-12 9-11 5-11 2h-133l-12-2-14-7-11-10-7-11-4-13-3-22-4-48-4-73-4-110-2-75-2-102-1-24-4-22-15-46-14-49-8-32-9-42-5-29-16-4-15-3-8-1-29-1-25 2-28 5-28 7-6 1h-17l-15-4-12-6-9-7-9-9-8-13-4-10-2-9-1-11v-47l2-18 5-15 8-13h2l2-4 8-8 14-8 11-4 20-4 37-6 13-2h10v-2l-5-2-18-11-65-39-10-8-7-7-8-12-5-13-2-10v-13l3-14 5-12 8-16 11-20 9-11 11-9 15-7 9-2 12-1 15 2 12 4 30 13 35 13 41 13 29 9 19 6 4-1 14-15 17-17 11-9 6-5-2-19-13-88h-10l-41 4-36 5h-19l-16-5-11-7-11-11-8-14-6-16-14-45-9-29-2-9v-20l5-16 9-14 9-9 16-9 21-10 32-13 36-12 29-7 7-1-5-41-8-49-9-42-7-25-8-24-11-25-4-12-1-12 3-16 6-12 8-10 13-10 20-11 20-8 17-5 17-3zm499 62-24 3-19 4-16 5-7 3-1 2 13 29 7 18 8 26 5 22 3 24v16l-3 21-4 13-5 10-8 7-14 6-5 2-4 16-3 17-1 10v32l3 18 5 17 8 16 8 12 11 12 13 10 20 12 20 8 22 6 20 4 7-1 15-6 36-12 29-9 32-9 51-12 30-6v-3l-24-24-8-7-9-9-6-12v-13l5-14 17-38 17-39 15-34 9-21-1-2-53-10-12-4-9-8-5-10-1-4v-11l4-10 7-12 2-7-1-6-7-6-13-6-16-4-12 47-11 42-13 51-6 9-5 5-10 4-30 6-16 1-10-3-10-9-4-7-2-9-3-49-4-35-4-24-5-23-8-26-6-11zm-495 2-17 4-16 7-9 5-1 2 9 20 11 33 8 31 7 33 7 41 6 42 5 41v20l-5 9-5 5-5 4-10 3-30 4-26 6-36 12-27 11-22 10-1 5 12 38 10 31 3 10 9-1 36-5 30-3 17-1h36l9 3 9 7 5 9 3 11 14 97 1 6 5-1 25-10 24-7 28-5 25-2h17l25 2 24 4 24 6 24 8 30 13 23 12 11 7h2l8-24 8-23 8-20 11-24 12-23 15-24 12-16 10-13 2-2-1-4-13-13-10-13-11-18-8-17-6-18-5-25-2-20v-24l3-29 6-30 3-12v-5l-17-13-18-13-5-3-5 2-12 9-10 9-8 7-10 9-8 8-2 1v2h-2v2h-2v2l-4 2-8 8v2h-2v2h-2l-7 8-12 12-7 8-13 14-7 8-9 10-5 6v2h-2l-9 11-7 6-9 4-3 1h-11l-14-5-16-9-13-10-16-16-10-13-12-20-10-22-7-19-7-24-7-33-5-35-3-38-1-57-4-3-8-2zm870 393-36 2-51 6-35 6-41 9-32 8-41 12-37 12-36 13-4 1h-8l-29-5-24-6-24-8-5-2-4 1v2l-3 1-8 10-14 19-11 18-8 14-11 23-11 27-11 34-6 23v6l13 12 12 14 12 17 9 16 8 20 4 14 3 18v38l-4 22-6 21-9 23-8 16-6 11-11 18-8 12-12 16-13 17-11 12-9 11-7 8 4 1 38-7 24-6 26-8 26-10 24-11 23-13 17-11 16-12 13-11 10-9 13-13 9-11 1-3h2l11-15 11-18 10-19 10-24 9-19 10-19 14-25 8-13 10-16 11-16 11-15 14-18 12-14 9-10 7-8 10-10 3-2v-2l4-2 12-11 14-11 13-10 20-13 25-14 24-11 30-10 25-6 31-4h51l4-5 20-41 2-6-8-5-19-8-22-7-21-5-29-4-13-1-26-1zm36 155-17 6-20 9-17 9-15 10-14 10-16 13-15 14-17 17-9 11-11 13-13 17-16 23-7 11-5 9-10 17-12 23-8 16-7 15-9 21-10 19-9 14-8 12-13 17-9 10-7 8-2 4-4 2v2l-4 2v2l-4 2-9 9-11 9-17 13-16 11-20 12-12 7-23 11-26 11-36 12-36 9-26 5-35 5-32 3-23 2-9 10-10 14-8 11-11 17-8 13-11 19-8 16-12 26-10 26-11 33-9 35-6 28-5 35-3 28-1 18v75l2 30 3 29 3 7 7 11 14 18 18 22 11 13 11 12 7 8 3 4h2l2 4 40 40 8 7 7 7 11 9 10 9 11 9 13 11 14 11 18 14 14 10 18 13 39 26 24 15 25 15 28 16 28 15 33 17 39 19 36 16 30 13 48 19 40 15 21 6 12 2h33l21-4 18-6 17-8 15-10 10-8 15-15 10-13 15-22 14-22 11-18 16-28 14-27 9-17 14-31 15-36 11-30 12-36 12-42 8-34 8-41 6-40 4-38 2-23 2-52v-28l-2-52-4-46-6-45-7-41-9-43-12-48-17-58-12-44-7-28-15-70-8-31-10-33-12-35-17-42-9-20-12-26-10-19-11-21-14-24-10-17-1-1zm-761 39-21 2-24 5-27 9-16 8-13 7-20 14-11 8-12 11-8 7-8 8v2h-2l-9 11-11 13-6 5-9 4-4 1h-7l-19-5-56-17-49-16-40-15-28-12-3 1-11 21-5 10v5l28 17 32 19 15 9 28 16 28 15 23 11 24 10 16 7 8 6 5 8 3 9v8l-3 10-6 8-6 5-10 3-58 2-36 3-57 8-40 7-5 2-1 3v52l2 5h7l27-7 21-4 25-3 13-1h26l21 2 23 4 26 8 21 9 9 7 5 8 2 6 5 36 9 44 10 39 11 38 16 51 5 22 2 14 1 13 3 146 3 98 5 107 4 57 2 18h101l1-4-9-41-8-44-4-24-3-14v-12l-4-50-1-20v-58l2-34 4-37 6-37 8-37 9-31 11-33 13-32 13-28 15-28 14-23 15-22 10-14 11-14 11-13 8-10 8-8v-2l3-1 7-8 12-14 9-11 11-12 9-11 11-12 11-14 10-13 16-24 12-21 8-18 7-21 3-15 1-8v-16l-2-13-4-14-8-16-9-13-11-12-5-5-10-9-11-8-18-13-18-11-22-12-25-11-25-8-23-5-14-2-13-1z"/>
<path transform="translate(1396,2047)" d="m0 0 4 1z"/>
<path transform="translate(631)" d="m0 0 4 1z"/>
<path transform="translate(796,1691)" d="m0 0"/>
</svg>
