<?xml version="1.0" encoding="UTF-8"?>
<svg version="1.1" viewBox="0 0 2048 2048" width="1280" height="1280" xmlns="http://www.w3.org/2000/svg">
<path transform="translate(103,995)" d="m0 0h661l23 2 16 4 15 6 11 6 11 8 11 9 10 11 10 15 8 16 6 18 3 17v24l-3 17-11 48-6 35-4 33-3 48v12l3 26 6 23 8 19 9 16 8 11 9 11 13 13 13 10 7 5 11 6 23 10 14 4 25 4h26l18-3 19-5 15-6 21-11 14-10 15-13 10-11 11-15 10-17 8-19 5-17 4-25v-36l-3-37-5-38-8-40-9-39-2-23 2-20 4-16 7-16 6-11 8-11 9-10 5-5 10-9 20-12 15-6 17-4 21-2h658l13 2 10 6 6 9 2 6v649l-6 12-7 6-6 3-6 1h-1849l-8-3-8-7-4-6-2-5-1-9v-635l2-10 6-10 10-7zm30 57-1 2v148l11-1 26-6 40-13 21-5 27-4 13-1h34l31 3 25 5 20 6 33 11 21 4 18 2h42l22-3 21-5 40-13 21-5 17-3 23-2h34l31 3 25 5 26 8 20 7 22 5 13 2h6l7-35 8-35 1-6v-13l-3-15-8-16-6-8-9-9-12-7-12-4-14-2zm1150 0-16 2-11 4-12 7-10 9v2h-2l-9 14-4 11-2 9v18l5 23 8 37 3 14 14-1 26-6 28-9 18-5 24-5 24-3 16-1h18l26 2 25 4 24 6 36 11 23 5 25 3h33l24-3 23-5 42-13 29-6 24-3 16-1h17l27 2 25 4 24 6 38 12 27 6 6 1v-151zm-1e3 176-25 2-17 3-21 6-31 10-27 6-24 4-1 4v369l281 1h1502v-373l-1-1-30-5-24-6-34-11-27-6-18-2-27-1-26 2-22 4-25 7-30 9-24 5-21 3-12 1h-36l-22-2-28-5-31-9-27-8-19-4-18-2-26-1-27 2-22 4-25 7-25 8-26 6-19 3-2 3 2 30v42l-2 18-6 27-8 23-12 25-9 14-10 14-12 14-17 17-17 13-17 11-19 10-23 9-17 5-27 5-11 1h-28l-24-3-21-5-23-8-21-10-18-11-16-12-11-10-7-6-7-8-9-10-13-19-9-16-9-19-8-24-5-22-2-15-1-15v-14l2-39 1-14-21-4-23-5-47-15-18-4-17-2-19-1h-15l-26 2-17 3-21 6-34 11-22 5-20 3-11 1h-49l-26-3-23-5-50-16-18-4-17-2-16-1z"/>
<path transform="translate(1160,359)" d="m0 0h15l10 5 5 5 4 5 2 6v15l-11 46-13 63-11 58-10 63-6 41-8 65-5 49-4 44-3 37-4 67-2 54-1 38v136l4 38 5 29 10 40 8 27 3 16v29l-4 20-8 20-8 14-10 13-14 14-13 9-12 7-15 6-20 5-8 1h-26l-17-3-18-6-17-9-11-8-10-9-9-9-10-14-6-10-7-17-4-16-2-17v-11l2-18 4-16 13-36 8-27 8-37 5-33 6-47 8-53 11-67 13-69 14-66 13-55 13-52 12-44 8-28 12-40 12-39 20-60 10-28 15-40 12-30 18-43 8-16 6-7zm-82 376m-1 2-9 34-16 66-12 53-13 65-8 44-7 40-8 53-6 45-5 37-4 24-8 35-10 34-11 30-3 13-1 13 3 17 5 12 7 11 3 4h2l1 3 12 9 13 6 15 3h15l16-4 14-7 11-9 8-10 7-14 3-12 1-14-3-17-9-30-7-28-5-25-5-36-2-23-1-29v-74l1-52 3-79 5-80 7-80 2-21v-7z"/>
<path transform="translate(195,1282)" d="m0 0h10l10 4 7 6 5 9 1 3v103l-4 9-7 8-8 4-5 1h-10l-10-4-8-8-4-9-1-7v-93l3-10 4-6 8-7z"/>
<path transform="translate(1443,1341)" d="m0 0h21l9 3 10 7 7 7 7 14 2 12-2 13-3 8-7 10-8 7-10 5-9 2h-14l-12-4-9-6-8-9-6-12-2-9v-8l3-12 5-10 7-8 11-7z"/>
<path transform="translate(1698,1324)" d="m0 0 16 2 10 5 10 9 6 9 4 11v18l-5 13-8 10-9 7-11 4-5 1h-14l-12-4-10-7-7-8-6-12-2-14 2-12 4-10 8-10 10-7 10-4z"/>
<path transform="translate(663,1340)" d="m0 0 11 1 11 4 9 7 8 9 5 11 1 4v18l-5 13-8 10-9 7-11 4-5 1h-14l-12-4-10-7-7-8-6-12-2-14 2-12 4-9 6-9 10-8 12-5z"/>
<path transform="translate(728,1509)" d="m0 0h20l11 4 11 8 8 11 4 10 1 5v12l-4 13-7 10-10 9-12 5-6 1h-13l-10-3-10-6-9-9-6-11-2-8v-15l4-12 8-11 8-7 8-4z"/>
<path transform="translate(1791,1477)" d="m0 0h21l8 3 10 6 8 8 7 14 2 12-2 13-4 9-6 9-8 7-11 5-9 2h-12l-13-4-10-7-7-8-6-12-2-10v-7l4-15 8-12 10-8z"/>
<path transform="translate(386,1340)" d="m0 0 11 1 11 4 9 7 8 9 4 8 3 14-2 15-6 12-9 10-9 5-8 3-5 1h-14l-12-4-11-8-7-9-5-10-1-4v-18l4-11 5-8 9-9 12-6z"/>
<path transform="translate(519,1477)" d="m0 0h21l12 5 8 6 8 9 5 11 2 12-2 13-4 9-6 9-8 7-11 5-9 2h-12l-13-4-10-7-7-8-6-12-2-10v-7l4-15 7-10 5-5 8-6z"/>
<path transform="translate(239,1493)" d="m0 0h20l11 4 11 8 8 11 4 11 1 5v9l-3 12-7 12-7 7-9 5-8 3-5 1h-13l-10-3-10-6-5-4-7-10-4-9-1-4v-16l4-12 7-10 9-8 10-5z"/>
<path transform="translate(1572,1493)" d="m0 0h20l9 3 10 7 7 7 7 14 2 10-1 12-4 11-7 10-8 7-11 5-9 2h-12l-13-4-10-7-7-8-6-13-2-11 2-14 6-12 9-10 9-6z"/>
<path transform="translate(1323,1493)" d="m0 0h20l11 4 11 8 8 11 4 11 1 5v9l-3 12-7 12-7 7-9 5-8 3-6 1h-12l-10-3-10-6-6-5-7-11-4-11v-16l4-12 7-10 9-8 10-5z"/>
</svg>
