<?xml version="1.0" encoding="UTF-8"?>
<svg version="1.1" viewBox="0 0 2048 2048" width="1280" height="1280" xmlns="http://www.w3.org/2000/svg">
<path transform="translate(1006,156)" d="m0 0 25 1 72 14 186 37 342 68 27 6 10 5 8 9 4 8 1 6v10l-2 23-5 26-5 19-7 20-9 20-10 19-11 17-1 6 14 43 10 37 8 36 5 31 3 28v44l-2 19v9l4 17 10 20 9 16 8 16 18 34 10 18 8 16 18 34 15 28 12 23 7 14 5 15 2 11v21l-4 19-7 16-9 14-12 13-14 10-14 7-13 4-19 3h-8v146l-3 27-7 29-7 20-11 24-12 20-12 16-9 11-6 7h-2v2h-2l-2 4-8 7-16 13-13 9-15 9-27 13-24 8-22 5-21 3-14 1-185 1-8 2-8 4-5 5-3 4-3 9-1 5v7l3 12 6 11 5 6 11 7 12 3 185 1 31 4 24 6 21 8 18 8 17 10 17 12 11 9 12 11 12 12 9 11 13 18 13 23 10 23 6 19 4 17 3 18 2 33 1 92v49l-2 9-7 11h-2v2l-12 6-16 2h-1269l-13-2-9-5-8-9-4-9-1-10v-145l2-26 3-17 5-20 8-23 12-25 12-19 10-13 9-11 8-9 8-7 7-7 13-10 10-7 20-12 21-10 27-9 22-5 23-3 109-1 17-3 15-5 16-8 16-11 12-11 11-12 7-10 8-13 8-20 3-12 1-7v-20l-4-18-8-16-9-11-10-9-16-12-22-18-10-9-8-7-10-9-12-11-20-20-7-8-11-12-9-11-12-14-13-17-14-19-20-30-8-13-10-17-10-18-15-29-13-29-13-33-12-35-9-32-8-33-7-38-5-38-3-35-1-24v-93l2-30 5-37 8-38 9-31 7-21 11-28 9-20 13-26 12-21 15-24 12-17 14-19 14-17 1-2h2l2-4 13-14 7-8 26-26 8-7 10-9 14-11 18-14 17-12 17-11 20-12 22-12 23-11 15-7 26-10 27-9 22-6 31-7 32-5 31-3zm-14 66-32 3-27 4-32 7-31 9-28 10-27 12-16 8-19 10-21 13-12 8-14 10-14 11-10 8-13 12-8 7-24 24-7 8-8 9-8 10-13 17-14 20-8 13-11 19-11 20-12 26-12 30-9 28-8 31-5 24-4 26-2 15-2 34v36l2 32 5 63 4 31 7 38 10 40 9 29 12 33 11 26 19 39 12 22 15 24 12 18 12 17 10 13 13 16 9 11 11 12 7 8 31 31 8 7 11 10 11 9 7 6 6-1 16-12 13-11 13-12 16-17 4-5v-2h2l11-14 11-15 7-10 16-24 12-20 10-17 15-27 9-17 12-24v-5l-9-10-11-18-8-18-6-21-4-23-2-18-1-16v-96l2-23 5-21 6-15 8-15 10-14 12-13 10-9 15-10 15-8 21-7 16-3 11-1h16l17 2 16 4 14 5 6 3h2l10-17 9-13 10-13 1-3h2l7-8 10-11 8-7 10-9 16-12 13-9 20-12 20-11 27-12 28-10 30-8 27-5 42-6 24-6 24-9 20-9 23-13 12-8 14-10 13-10 13-11 13-12 18-18 13-18 9-16 7-17 6-23 2-11-1-5-53-11-81-16-156-31-297-59zm585 295-17 13-12 9-15 10-26 15-23 11-26 10-23 7-25 6-23 4-27 4-22 5-20 6-22 8-16 7-19 10-17 10-14 10-16 13-12 11-2 4h-2l-9 11-10 14-10 19-4 12 1 5 8 15 8 21 4 15 1 8v16l-4 13-6 8-5 4-11 4h-14l-10-4-8-8-4-8-2-10-2-17-5-15-8-14-8-9-12-9-15-7-11-3-14-1-18 2-15 6-11 7-10 9-7 9-8 16-3 9-1 6v132l3 16 5 15 7 14 10 14 14 14 13 9 16 8 15 5 11 2h23l11-4 9-7 6-8 3-7 4-22 5-9 5-5 8-5 8-2h8l10 3 6 4 8 9 3 8 1 6-1 18-5 19-6 13-5 9-9 11-7 7-14 10-17 8-16 5-9 2-10 1h-26l-19-3-24-8-15-7-12 23-15 28-13 23-16 26-9 14-15 22-8 11-22 28-15 16-7 8-11 11-8 7-13 11-8 6 1 5 7 10 11 23 6 20 3 21v22l-2 18-5 20-7 19-8 17-8 13-12 17-13 14v2h-2l-12 12-13 10-17 11-16 8-14 6-21 6-17 3-10 1-104 1-19 2-24 6-15 6-16 8-14 9-13 10-6 5v2l-4 2v2h-2l-7 8-13 17-10 17-8 19-5 16-3 12-2 17-1 117 1 8h554l1-481 3-31 6-31 8-26 9-24 8-16 9-17 7-11 11-16 11-14 12-14 20-20 11-9 10-8 20-14 21-12 27-13 28-10 28-7 26-4 26-2 355-1 1-4 1-52 4-11 7-9 12-6 47-1 12-3 9-6 6-9 2-6v-13l-5-12-15-29-12-22-16-31-12-22-12-23-10-19-15-28-18-34-6-16-4-19-1-9v-16l1-17v-29l-2-31-4-30-5-26-10-37-5-17zm-305 652-22 2-25 5-26 8-18 8-21 11-17 11-13 10-10 9-8 7-8 8-7 8-12 15-10 15-9 16-10 21-7 19-5 17-4 19-2 19-1 22v466h53l1-70v-342l1-31 4-27 6-23 8-22 11-23 8-13 10-14 10-13 14-15 8-8 14-11 15-11 19-11 23-11 24-8 17-4 20-3 10-1 316-1 1-2v-52zm44 119-21 3-19 5-20 8-18 10-14 10-14 12-10 10-8 10-10 14-9 16-8 20-5 17-4 24-1 438h474v-89l-1-35-3-22-6-21-6-15-8-16-10-15-8-10-12-13-14-12-17-11-21-11-24-8-20-4-14-1-180-1-19-3-16-5-14-7-14-10-14-14-10-15-7-14-5-16-2-13v-21l3-16 6-16 6-11 10-13 9-9 13-9 17-8 10-3 15-2 189-1 20-2 21-5 17-6 19-9 19-12 14-12 10-9 12-14 10-15 8-14 3-6v-3z"/>
<path transform="translate(853,330)" d="m0 0 12 2 10 6 7 8 4 9 1 4v7l-3 11-6 8-11 10-14 11-13 11-15 14-27 27-7 8-12 14-13 16-14 19-16 24-9 15-12 22-10 21-11 28-9 29-5 22-4 23-3 37-1 15-6 12-4 5-8 5-6 2-10 1-10-2-10-6-7-9-3-8-1-6v-14l2-30 4-29 6-28 7-25 7-21 13-32 12-25 13-23 11-18 12-18 14-19 13-17 12-14 11-13 15-16 27-27 8-7 14-12 16-13 11-8 8-4z"/>
</svg>
