<?xml version="1.0" encoding="UTF-8"?>
<svg version="1.1" viewBox="0 0 2048 2048" width="1280" height="1280" xmlns="http://www.w3.org/2000/svg">
<path transform="translate(741)" d="m0 0h122v1l50 6 36 6 27 6 30 8 30 10 32 13 26 13 17 10 12 8 11 8 16 13 12 11 8 8v2h2l11 14 9 13 8 13 9 20 6 18 5 23 1 8 6 2 14 8 16 12 12 11 9 10 9 13 9 16 8 20 4 16 2 13 1 21v282l9 3 14 9 10 9 7 7 9 14 6 13 4 18 1 13v58l-2 23-3 16-6 18-8 17-7 11-10 13-11 12-10 9-15 10-19 10-24 8-16 3-10 1-40 1-5 36-6 29-8 27-9 24-8 18-8 16-8 15-14 22-10 14-10 13-12 14-3 4h-2l-2 4-20 20-8 7-13 11-12 9-20 14-1 100 9 2 38 12 63 21h2l5-10 10-22 12-22 16-26 12-17 12-16 9-11 7-9h2l2-4 16-17 15-15 8-7 10-9 14-11 19-14 18-12 16-10 22-12 22-11 27-11 23-8 27-8 32-7 25-4 30-3 17-1h30l32 2 32 4 31 6 30 8 30 10 29 12 32 16 21 12 24 16 18 13 17 14 14 12 10 10 8 7 14 15 11 12 11 14 13 17 9 13 14 22 9 16 12 23 12 27 11 30 9 31 7 33 5 31 2 1v105l-2 2-5 32-5 26-8 30-10 29-11 26-12 25-12 22-11 18-3 4-4-2-17-11-30-20 2-5 15-25 8-15 11-24 10-27 6-19 6-23 6-31 3-27 1-15v-45l-3-31-5-30-6-25-7-24-12-31-8-18-10-19-12-21-15-22-9-12-14-17-11-12v-2h-2l-7-8-7-7-8-7-10-9-14-11-13-10-24-16-19-11-23-12-23-10-18-7-26-8-30-7-31-5-24-2-21-1h-18l-31 2-24 3-34 7-28 8-25 9-25 11-24 12-20 12-15 10-16 12-13 10-11 10-8 7-11 11h-2l-2 4-11 11-9 11-14 17-14 20-13 21-13 24-12 26-11 30-9 31-5 24-4 26-2 23-1 18v21l2 28 4 31 6 29 8 28 10 28 13 29 14 26 11 18 10 14 8 11 13 16 12 14 26 26 11 9 9 8 16 12 16 11 21 13 29 15 20 9 27 10 22 7 36 8 30 4 23 2h43l33-3 30-5 26-6 26-8 21-8 25-11 25-13 15-9 8-5 4 2 9 14 10 15 11 17v4l-22 13-16 9-21 11-28 12-28 10-27 8-31 7-37 6-13 2h-1609v-349l3-13 6-24 7-19 9-19 9-15 12-17 10-11 7-8 15-15 22-18 17-12 19-12 22-12 17-9 29-13 28-11 40-14 55-19 53-18 43-15 68-23 43-15 33-11 20-7h2l-1-100-20-14-16-13-11-9-8-8-8-7-7-7-7-8-11-12-11-14-13-18-12-19-10-18-12-24-9-23-9-27-7-29-4-23-2-17v-8h-43l-20-3-18-5-18-8-14-8-11-8-10-9-5-4-9-11-8-10-11-19-8-20-4-16-2-13-1-13v-65l2-16 5-17 8-15 8-10 12-12 13-8 10-5h2v-291l2-20 5-21 8-20 9-16 10-14 14-15 14-12 18-11 10-5 3-18 5-19 10-25 9-16 11-16 11-14h2l2-4 16-16 14-11 13-10 19-12 10-6 5 1 6 12 13 23 8 16-3 3-17 10-14 10-13 11-9 8-1 2h-2l-2 4-10 12-8 13-8 16-5 16-3 15-1 20v19l-4 3-22 6-15 6-11 7-11 9-8 10-8 13-6 14-3 14-1 293h58v-153l2-15 4-14 9-17 7-9 6-7 11-9 14-8 13-5 10-2 10-1h609l16 2 13 4 14 7 11 8 8 7 10 13 8 15 5 16 2 20v148h58l-1-293-4-17-9-19-10-13-10-9-14-9-15-6-25-7-1-5v-21l-2-19-5-19-8-18-9-15-9-12-9-10-11-11-14-11-16-11-15-9-19-10-26-11-33-11-32-8-31-6-38-5-24-2-20-1h-80l-39 3-38 5-40 8-36 10-15 5-4-1-4-10-14-39-1-7 7-3 26-8 27-7 33-7 38-6 37-4zm-246 471-9 3-10 9-4 7-1 4-1 170 2 9 11 13 11 14 13 16 11 14 13 16 20 25 11 14 9 11 8-1 147-37 69-17h10l73 18 148 37 4-1 14-17 11-14 13-16 11-14 13-16 11-14 13-16 8-10 5-7v-177l-4-10-4-5-7-5-10-3zm-179 240-8 2-8 6-6 7-3 8v79l3 14 6 15 7 11 11 13 13 10 15 8 13 4 13 2h37v-179zm875 0v179h38l16-3 15-6 13-8 9-7 7-8 1-3h2l8-13 6-15 3-15v-78l-4-10-5-6-9-5-7-2zm-721 57 1 175 2 21 4 24 7 27 7 21 13 30 9 17 12 19 5 5v-264l-4-7-14-17-11-14-13-16-11-14-6-7zm659 0 1 2zm-1 2-5 5-13 16-8 10-10 13-11 14-8 9-2 4-1 265 4-2 13-21 12-23 11-27 6-18 7-28 4-24 2-23v-170zm-328 32-26 6-76 19-73 18-31 8-3 1-1 320 5 5 19 14 24 15 21 11 21 9 20 7 21 6 31 6 31 3h35l22-2 30-5 23-6 24-8 23-10 25-13 22-14 19-14 3-3v-321l-207-52zm-149 480v77l7 8 29 29 7 8 21 21 7 8 25 25 7 8 17 17 3 4h2l2 4 20 20 3 1 19-19v-2l4-2v-2h2l7-8 17-17 7-8 25-25v-2l3-1 7-8 25-25 7-8 16-16v-2l4-2 5-6v-77l-10 3-30 10-28 7-30 5-31 3h-42l-23-2-26-4-27-6-27-8-19-7zm353 128-3 13-21 112-9 50-27 144-7 39-12 64-12 65-10 54-6 31v5h435l-3-3-23-14-17-12-12-9-10-8-11-9-20-18-23-23-9-11-12-14-14-19-10-14-12-19-15-27-13-27-13-33-10-32-7-29-6-36-3-31-1-25v-13l1-26 4-36 5-29 5-22v-6l-52-17-32-10zm-408 1-36 12-56 19-43 15-62 21-37 13-33 11-37 13-29 10-21 8-24 10-22 10-22 12-14 8-19 13-13 10-15 13-5 5v2l-3 1-7 8-11 15-7 11-8 17-7 21-3 17-1 9-1 24v248l6 1 637-1-1-9-25-135-16-87-12-64-18-97-22-119-11-59-1-6zm73 54 1 10 21 114 7 37 7-6 9-10 9-11 11-12 9-11 3-3v-2h2l7-8 3-4-1-4-28-28-2-3h-2l-2-4-25-25-7-8-17-17zm261 0-7 8-15 15-7 8-22 22-7 8-20 20v2l-4 2-5 6-2 2 12 13 9 11 10 11 9 11 14 15 6 7 2-4 9-50 19-102v-5zm-131 139-11 12-9 11-3 3v2h-2l-9 11-12 13-9 11-10 11-9 11-9 9-3 4 1 11 25 135 19 102 7 37h69l2-6 7-36 15-81 22-119 7-37v-6l-10-11-9-11-11-12-7-8-12-14-9-10-7-8-12-14-8-10z"/>
<path transform="translate(1538,1237)" d="m0 0h59l2 3v48l-1 11 11 1 25 5 26 8 26 11 17 9 19 12 12 9 3 1 42-42 4 2 39 39-1 4-12 12-5 6-7 6-5 6-8 7-3 3 1 4 10 14 10 16 8 14 10 23 9 27 6 27 2 13 60 1 2 5v54l-2 2h-60l-3 20-6 25-8 24-8 19-13 23-8 12-8 11-2 5v2l4 2 36 36 1 4-6 7-6 5-7 8-13 13h-2l-1 3-6 5-4-2-39-39-5 1-13 10-20 12-17 9-25 10-19 6-28 6-12 2v59l-2 2h-59l-1-1-1-60-27-5-19-5-26-9-25-12-23-14-13-10-5-1-9 9-5 6-7 6-5 6-8 7-8 8-6-5-7-8-29-29 1-4 38-38h2l-1-5-12-17-12-20-13-27-7-20-6-21-5-27v-4h-61l-1-1v-58l1-2h61l2-16 6-26 8-24 11-25 10-18 12-18 7-9-1-4-6-5-7-8-24-24-2-1v-2l-2-1 7-8 35-35 4 2 6 7 8 7 25 25 5-1 14-10 16-10 23-12 19-8 27-8 25-5 10-1v-60zm28 121-20 1-24 4-22 6-22 9-15 8-14 9-12 9-20 18-7 8-13 16-7 11-9 16-8 17-7 21-5 22-2 15v40l3 20 6 24 8 21 12 23 8 12 10 13 9 10 15 15 14 11 15 10 18 10 25 10 18 5 22 4 7 1h37l26-4 25-7 21-9 19-10 20-14 10-9 8-7 10-10 5-6v-2h2l14-20 10-18 8-19 6-18 5-23 2-17v-34l-4-26-5-19-8-21-8-17-13-21-13-16-11-12-12-11-16-12-18-11-23-11-24-8-12-3-20-3z"/>
<path transform="translate(1598,1447)" d="m0 0h59l2 6-1 55h-60l-1-1v-59z"/>
<path transform="translate(899,143)" d="m0 0h60l1 7-1 53-1 1h-59l-1-1v-59z"/>
<path transform="translate(1019,203)" d="m0 0h60l1 5-1 55-1 1h-59l-1-1v-59z"/>
<path transform="translate(1885,1844)" d="m0 0 7 6 36 36-2 4-8 8-5 6h-2l-2 4h-2l-2 4-4 4h-2l-2 4-4 4h-2l-2 4-4 2-4-4v-2l-4-2-33-33 1-5 8-7 7-8z"/>
<path transform="translate(1599,1627)" d="m0 0h57l2 1 1 4-1 56h-60l-1-1v-59z"/>
<path transform="translate(1479,1537)" d="m0 0h35l24 1 1 58-2 2h-59l-1-1v-59z"/>
</svg>
