<?xml version="1.0" encoding="UTF-8"?>
<svg version="1.1" viewBox="0 0 2048 2048" width="1280" height="1280" xmlns="http://www.w3.org/2000/svg">
<path transform="translate(604)" d="m0 0h495l6 2 26 6 20 7 21 10 18 11 12 9 14 12 14 14 9 11 12 17 10 18 8 17 7 21 5 22 2 14 1 14v616l-2 24-4 28-8 36-9 29-10 26-9 20-10 20-10 17-13 20-13 18-13 16-9 10-7 8-24 24-11 9-10 9-19 14-18 12-18 11-24 13v1l15 3 36 10 37 12 30 11 36 15 22 10 15 8 4 1-6-19-3-14-1-7v-20l3-17 5-17 10-19 8-12h2l2-4 13-13 11-8 16-9 17-6 14-3 10-1h17l20 3 15 5 16 8 11 7 14 12 8 9 8-2 24-8 26-6 23-4 26-3 14-1h44l35 3 26 4 30 7 34 11 8-9 10-8 15-10 18-8 15-4 17-2h14l20 3 18 6 17 9 12 9 12 11v2h2l10 14 8 14 6 16 4 20v27l-3 15-6 18-6 12-9 13-8 10h-2v2l-8 7-5 4h-2l5 28 3 27v33l-3 29-6 30-7 24-8 21-14 29-10 17-13 19-9 11-11 13-6 6-1 3 6 1 24 10 19 10 21 14 13 10 14 12 8 7 7 8 7 7 9 11 10 13 9 13v2l4 2 16 6 16 8 10 6 13 10 11 11 7 10 8 16 5 14 2 9h2v65l-2 1-4 24-6 27-6 18-9 19-6 10-10 14-12 14-7 7-11 9-14 10-18 10-20 8-21 6-13 3h-47l-1-2-20-6-16-8-11-7-10-8-9-8h-3l-5 5-10 7-12 7-15 6-18 5-23 4-33 3-19 1v1h-109v-1l-49-4-24-4-20-6-21-10-15-11-3-3-4 1-9 9-13 9-14 8-15 6-13 4-7 2h-43l-15-4-21-6-19-8-14-8-17-12-13-12-11-11-10-13-9-14-9-17-8-22-6-26-5-29-2-19v-27l3-20 5-16 4-9 7-13 7-9 5-6h2v-2l14-11 13-8 17-8 15-6 6-7 10-14 12-14 1-2h2l2-4 16-16 11-9 13-11 16-11 20-12 23-11 20-8-13-14-9-11-12-16-11-17-10-18-12-25-9-25-6-23-4-21-3-24-1-19v-27l-15-10-28-16-35-18-21-10-33-14-30-11-4-1-2 4-20 28-28 38-11 15-13 18-12 16-26 36-6 8-14 19-13 18-12 16-10 14-12 16-10 14-14 19-13 18-12 16-5 6-10 6-7 2h-12l-11-4-9-8-13-18-12-16-13-18-28-38-13-18-12-16-14-19-10-14-70-95-13-18-28-38-4-5v-2l-4 1-5 8-9 24-8 28-9 38-7 34-8 47-7 53 11 1 22 6 19 7 16 8 14 8 19 14 13 12 13 13 11 14 10 15 12 23 9 24 5 20 3 21 1 23v234l-1 32-3 15-6 14-8 11-7 8-11 8-14 7-11 4h-26l-1-2-8-4-8-9-4-9v-16l4-10 2-3h2l2-4 10-6 15-3 4-1 3-12-1-272-2-13-5-19-6-15-10-18-10-13-9-10-8-7-15-11-21-11-18-6-14-3-19-2h-10l-19 2-18 4-16 6-17 9-14 10-12 11-7 7-10 13-10 18-6 14-4 12-4 22v281l3 3 17 4 10 6 7 8 4 9 1 11-3 10-7 10-8 6-5 1v2h-24l-19-7-10-6-11-9-8-10-7-12-4-11-2-9-1-25v-248l2-27 5-25 9-27 10-21 8-13 14-19 15-16 9-9 10-8 16-11 17-10 21-9 15-5 22-5 9-66 8-47 10-48 9-36-24 12-23 13-22 13-11 7-24 16-18 13-16 12-16 13-11 9-14 12-7 7-16 14-5 6-8 7-4 5-18 18-9 11-11 12-11 14-13 16-13 18-8 11-10 15-11 17-10 17-11 19-12 23-8 16-10 21-8 19-12 30-12 36-12 42-8 35-6 34-3 19-4 36-2 31-2 45-4 9-4 6-7 6-7 4h-20l-11-7-7-8-4-7v-72l2-11 5-44 6-37 8-39 10-39 9-30 13-37 13-32 12-27 12-25 15-29 16-27 13-21 16-24 12-17 12-16 10-13 11-13 8-10 9-10 9-11 8-8 7-8 30-30 8-7 12-11 11-9 11-10 14-11 18-14 18-13 17-12 14-9 19-12 24-14 22-12 21-11 28-13 42-18 12-7 17-3 27-9 36-10 22-5-5-4-20-11-18-11-20-14-14-11-11-9-10-9-12-11-16-16-7-8-12-14-15-20-18-27-12-21-13-26-11-27-10-30-7-28-5-27-4-36-1-21-1-329v-68l1-204 2-21 5-24 6-19 8-19 9-17 8-12 10-13 6-8h2l2-4 14-14 14-11 14-10 16-9 17-8 16-6 28-7zm26 64-16 1-21 4-20 7-17 9-12 8-13 11-14 14-4 6-7 10-9 16-6 15-4 14-3 14-1 12v232h732l3-1 1-4v-223l-2-21-6-23-9-21-11-18-11-13-13-13-16-12-18-10-21-8-18-4-9-1-20-1zm-146 437-1 5v285l1 34 4 33 6 28 7 24 9 25 11 24 8 16 12 20 11 16 10 13 9 11 11 12 9 10 7 7 8 7 15 13 19 14 15 10 26 15 21 10 25 10 25 8 25 6 24 4 18 2h66l31-4 31-7 26-8 21-8 24-11 23-13 20-13 14-10 11-9 15-13 25-25 9-11 7-8 13-18 13-20 13-24 11-24 9-24 8-28 6-29 3-26 1-15v-136l-5-1-57-4-45-5-43-7-43-9-38-10-41-13-34-13-32-14-22-11-22-12-23-14-19-13-19-14-13-11-11-9-11-11-9-7zm350 0 3 3 18 11 15 9 22 12 22 11 38 16 34 12 30 9 36 9 41 8 33 5 47 5 40 3h6v-113zm504 651-13 4-10 6-7 6-8 11-5 12-1 5v20l3 10 6 11 3 4h3l14-21 9-11v-2h2l7-8 6-7 8-7 10-9 15-11-2-4-14-7-9-2zm474 4-14 4-9 5 5 4 17 14 13 12 11 12 11 14 9 13 3 5 4-1 6-11 3-11v-17l-5-15-6-9-6-7-13-8-15-4zm-250 16-30 3-26 5-22 6-20 7-16 7-17 9-18 12-14 11-7 6v2l-3 1-7 8-11 14-11 18-8 17-7 21-5 25-1 9v37l3 22 6 26 7 20 9 20 8 15 9 14 9 12 9 11 14 15 12 11 13 10 13 9 17 10 23 11 23 8 19 5 27 4 15 1h18l22-2 23-4 25-7 20-8 17-8 20-12 19-14 12-11 8-7 12-13 12-15 13-20 12-23 10-26 7-27 3-18 1-10v-34l-4-27-5-19-8-20-10-19-10-14-12-14-8-8-14-11-13-9-19-11-17-8-25-9-26-7-23-4-32-3zm-754 58-39 3-33 4-35 6-40 9v3l10 13 26 36 28 38 11 15 13 18 9 12 8 11 13 18 14 19 9 12 8 11 13 18 14 19 9 12 3 5 4-1 10-13 13-18 42-57 13-18 42-57 10-14 28-38 13-18 14-19 4-6-14-4-39-8-39-6-41-4-18-1zm620 416-17 2-20 5-20 7-21 10-19 12-14 10-4 4 23 5 13 5 12 7 10 8 10 10 11 16 11 21 10 26 10 34 7 30 3 25v23l-3 23-3 14 1 6 9 10 7 6 16 8 15 4 24 3 14 1h135l31-2 19-3 15-5 14-8 12-12 1-2v-9l-4-22-1-8v-33l4-25 9-36 7-22 9-24 8-16 7-12 8-11 6-7 3-2v-2l4-2 8-6 14-8 17-5 17-3-2-4-17-13-18-11-21-10-15-5-16-4-13-2h-20l-12 5-19 9-28 10-28 7-25 4-21 2h-35l-29-3-29-6-24-7-25-10-26-12zm-131 115-23 3-30 7-17 5-18 8-11 8-6 7-4 8-3 14-1 16 3 28 5 28 5 17 7 16 9 13 9 11h2v2l14 11 11 7 16 7 16 4 7 1h27l10-3 14-8 10-9 7-10 5-10 6-20 2-12 1-19-2-19-7-30-8-27-7-19-10-19-9-10-10-5-7-1zm561-1-8 2-8 4-9 10-5 9-6 12-6 16-8 28-8 32-1 9v23l3 17 5 16 5 12 7 10 9 9 11 7 9 4 4 1h30l17-4 15-6 16-9 11-9 12-12 9-13 8-16 6-21 5-27 2-17v-28l-4-16-6-9-9-8-16-8-14-5-23-6-21-4-31-3z"/>
<path transform="translate(849,122)" d="m0 0 10 1 9 4 8 7 4 5 3 8v75h68l11 2 9 5 7 7 4 8 2 8v7l-4 11-6 8-8 6-9 3h-73l-1 76-5 10-7 8-10 5-3 1h-14l-10-4-9-8-6-12-1-7v-69h-74l-10-4-9-8-6-12-1-10 3-12 7-10 11-7 10-2h69v-69l3-12 7-10 11-7z"/>
<path transform="translate(1535,1439)" d="m0 0h96l12 2 10 6 7 8 4 9v16l-6 12-9 8-13 4-19 1-1 23-6 12-9 8-11 4h-13l-10-4-10-9-5-11-1-5v-19h-22l-14-7-7-8-4-9v-16l4-9 6-8 14-7z"/>
<path transform="translate(1272,2047)" d="m0 0 4 1z"/>
<path transform="translate(1100)" d="m0 0 2 1z"/>
<path transform="translate(354,2047)" d="m0 0"/>
</svg>
