<?xml version="1.0" encoding="UTF-8"?>
<svg version="1.1" viewBox="0 0 2048 2048" width="1280" height="1280" xmlns="http://www.w3.org/2000/svg">
<path transform="translate(554,1036)" d="m0 0h23l24 3 18 4 22 8 19 9 28 17 25 14 21 11 31 14 26 10 35 12 34 9 26 6 27 5 28 4 48 4h72l37-3 37-5 36-7 25-6 34-10 29-10 27-11 24-11 16-8 21-11 28-17 21-12 19-8 20-6 21-4 9-1h35l21 3 17 4 20 7 21 10 17 11 13 10 14 12 7 7 8 7 24 24 7 8 7 7 7 8 12 14 11 13 11 14 14 18 13 18 11 16 13 20 16 26 14 25 18 35 16 34 13 32 9 24 12 36 12 42 10 43 8 46 5 41 3 38 1 24v146l-2 21-5 23-7 20-7 16-11 19-12 16-10 11-6 7-8 7-16 13-15 9-21 11-22 8-23 6-10 2h-1412l-36-9-19-7-20-10-18-12-10-8-10-9-14-14-11-14-10-15-10-19-8-21-5-18-4-26-1-16v-122l1-33 3-39 5-42 6-37 8-37 9-36 11-36 12-35 8-21 12-28 9-20 16-32 12-22 9-16 16-26 7-11 8-12 11-16 13-17 12-16 13-16 8-10 8-9 7-8 9-10 3-4h2l2-4 36-36 8-7 10-9 17-13 20-12 17-8 21-7 17-4 13-2z" fill="gray"/>
<path transform="translate(977)" d="m0 0h100v1l42 7 32 7 33 10 26 10 21 9 19 9 22 12 24 15 20 14 13 10 10 8 13 11 12 11 8 7 7 8 13 13 7 8 14 17 12 16 14 20 12 20 12 21 13 26 13 32 11 33 9 36 5 27 4 33 1 12 1 34-1 31-4 38-5 29-6 26-9 30-9 25-11 26-16 32-16 27-8 12-10 14-10 13-11 14-10 11-7 8-9 9-5 6-8 7-9 9-11 9-14 12-16 12-24 16-25 15-23 12-21 10-25 10-33 11-36 9-35 6-38 4-22 1h-21l-34-2-32-4-31-6-24-6-29-9-29-11-26-12-22-11-22-13-21-14-18-13-16-13-11-9-7-7-8-7-24-24-7-8-12-14-13-17-13-18-11-17-14-24-12-23-11-25-8-21-10-30-8-32-6-34-4-36-1-16v-43l3-35 5-33 7-32 10-34 12-32 15-33 9-17 11-19 11-17 13-19 9-11 7-9 12-14 9-10 5-6h2l2-4h2l2-4h2l2-4h2v-2l8-7 12-11 11-9 15-12 20-14 17-11 17-10 18-10 25-12 27-11 33-11 27-7 34-7 29-4z" fill="gray"/>
<path transform="translate(311,2047)" d="m0 0 4 1z"/>
</svg>
