<?xml version="1.0" encoding="UTF-8"?>
<svg version="1.1" viewBox="0 0 2048 2048" width="1280" height="1280" xmlns="http://www.w3.org/2000/svg">
<path transform="translate(1457,690)" d="m0 0h14l12 6 41 41 7 8 38 38 7 8 36 36 7 8 23 23 5-5 11-13 9-10 9-11 9-10 9-9 14-11 15-10 21-11 20-7 22-5 19-2h21l19 2 22 5 20 7 20 10 15 10 16 13 11 12 9 14 6 15 4 17v24l-3 15-7 20-15 41-15 40-38 102-15 40-16 43-19 51-21 56-26 70-24 64-17 46-15 40-16 43-24 64-16 43-6 16-1 253-2 14-7 10-8 6-10 3h-7l-10-3-8-6-6-9-2-5-1-16 1-257 10-28 15-40 13-35 18-48 16-43 13-34 6-17 22-59 15-40 26-70 18-48 16-43 19-51 39-104 14-38 13-34 6-17 12-32 2-7v-16l-7-14-7-7-13-9-17-9-18-6-17-3h-24l-18 3-18 6-17 9-12 9-10 9-11 12-9 11-9 10-9 11-7 8 2 6 7 14 5 14 4 15 2 15v20l-2 17-5 19-8 18-9 15-11 14-46 46h-2l-2 4-8 7-30 30h-2l-1 3-8 7-37 37h-2v2l-8 7-36 36h-2l-1 3-8 7-5 6 3 12 6 22 5 26 3 26 1 26-2 24-5 20-6 16-9 16-8 11-12 14-10 10h-2v2l-8 7-36 36h-2v2l-8 7-46 46-8 7-33 33-8 7-5 5h-2l-1 3 209 1 8 2 9 6 6 8 3 9v10l-4 10-9 10-10 4-12 1h-1363l-11-2-8-5-7-8-4-11v-9l4-10 6-8 14-7h740l-10-19-7-21-18-68-29-109-6-23-669-1-11-4-6-5-6-10-2-6v-9l4-11 7-8 8-5 9-2h650l-3-9v-9l3-10 7-9 9-6 4-1h84l25 4 20 6 20 9 13 8 6-1 16-8 31-15 23-11 34-16 27-13 23-11 34-16 27-13 23-11 22-10 8-2 11 1 9 4 6 5 6 10 1 4v13l-4 9-7 8-10 6-28 13-35 17-28 13-35 17-28 13-31 15-22 10-16 8-15 7 7 11 7 12 8 20 12 36 12 33 1 1 124 1 10 4 6 5 6 10 2 7v8l-4 11-9 10-10 4-9 1h-141l-9-2-9-6-6-8-11-29-18-52-7-21-10-19-8-10-9-10-14-11-12-7-15-6-15-4-6-1h-36l8 29 24 91 20 75 10 37 5 13 6 10 9 10 9 7 12 6 14 4 9 1h209l14-2 12-4 12-7 14-12 31-31h2l1-3 8-7 34-34h2v-2l8-7 35-35 8-7 41-41h2l1-3 8-7 10-10 8-11 7-14 4-16 1-21-2-25-4-24-7-28-10-30v-11l4-10 11-12 14-14 8-7 45-45 6-5 39-39 8-7 41-41 8-7 38-38 8-13 5-12 3-15v-16l-3-15-5-12-6-10-22-24-35-35-7-8-32-32-7-8-32-32-7-8-24-24-4 2-7 7-7 8-7 7-7 9-12 17-9 17-6 16-2 11v19l4 15 7 14 8 10 7 8 8 7 15 11 18 10 17 8 19 8 7 5 5 7 3 9v11l-4 10-7 8-10 5-3 1h-12l-22-8-20-9-21-12-14-10-9-7-12-11-9-9-5 3-29 29-8 7-21 21-6 8-4 8v15l9 36 10 37 4 8 5 6 14 8 6 4 5 5 4 6 2 6v13l-6 12-8 7-10 4h-12l-11-4-13-7-10-8-12-12-9-14-6-13-7-24-13-50-3-16v-23l3-14 6-15 7-11 9-11 12-13 20-20 8-7 26-26 8-7 2-3-1-10-2-13v-26l3-18 6-19 7-16 9-17 8-12 9-12 9-11 9-10 26-26 11-9 8-7z" fill="black"/>
<path transform="translate(634,610)" d="m0 0 10 1 9 4 15 10 22 15 19 13 28 19 41 28 6 4h8l92-13h13l10 4 8 7 5 10 1 3v9l-5 21-15 55-19 70-21 77-13 47-9 34-12 44-5 16-5 9-7 6-13 4-75 8-49 5-3 1-3 9-8 13-9 11-9 9-15 10-14 6-18 5-91 19-161 33-57 12-17 3h-28l-15-3-16-6-15-8-13-10-13-13-10-14-8-16-5-16-3-19-4-113-3-105-1-64v-44l3-25 5-20 8-22 12-23 11-16 12-14 16-16 13-10 19-12 28-15 23-13 15-7 4-1h9l10 3 6 4v2h2l6 10 2 7v8l-3 10-7 9-13 8-32 17-23 13-14 9-13 12-8 8-11 16-8 15-6 17-4 18-1 13v30l1 72 4 138 2 59 1 20 4 16 6 10 7 8 13 8 11 4 14 1 23-4 70-15 229-47 16-5 8-6 6-7 4-9 1-4v-15l-4-11-6-8-7-6-10-4-4-1h-12l-262 61-10 2h-15l-10-5-7-7-4-9-1-4v-8l3-10 6-8 9-6 22-6 30-7-4-45-1-10-5-5-17-16-7-7-10-13-9-15-8-17-5-15-4-18-1-7v-32l4-22 7-27 7-23 8-11 12-6h15l9 4 8 7 5 10 1 4-1 13-10 36-4 18v26l4 16 6 15 8 12 8 10 8 7 16 13 8 7 5 10 3 23 3 32v12l36-8 76-18 20-4 4-16 27-106 18-70 13-50 4-11 6-8 10-6 17-3 63-9h10v-2l-5-2-15-11-24-16-11-8-15-10-9-7-7-8-3-7-1-8 2-10 6-10 6-5 9-4zm211 147-204 29-3 9-21 82-18 70-10 38 1 4 18 4 16 7 15 10 13 12 10 14 8 17 2 6h10l87-9 3-5 10-36 9-34 9-32 9-34 33-121 8-29v-2z" fill="black"/>
<path transform="translate(1171,162)" d="m0 0h564l20 2 17 4 19 7 18 10 13 10 12 11 10 12 9 15 7 16 4 16 1 8 1 25v375l-1 15-5 10-4 5-10 6-4 1h-14l-12-6-6-7-4-9-1-12v-357l-1-44-4-12-6-10-9-10-11-8-12-6-16-5-9-1h-565l-13 2-15 5-11 6-10 8-9 10-7 14-2 7-1 12v428l2 14 4 10 7 10 4 5 10 8 15 8 16 5 19 2h52l22 1 10 5 7 7 4 8 1 4v11l-4 10-7 8-6 4-7 2h-87l-19-3-20-6-23-11-14-10-10-9-10-10-7-10-7-11-7-17-4-16-2-19v-431l2-20 5-18 8-17 11-16 12-13 13-11 18-11 18-8 18-5 12-2z" fill="black"/>
<path transform="translate(441,92)" d="m0 0h23l20 2 23 5 21 7 23 11 16 10 13 10 10 9 6 5v2h2v2h2l7 8 14 18 12 20 10 21 9 27 5 26 2 15 3 5 9 7 8 7 9 11 7 10 8 14 6 15 6 20 4 25v33l-4 26-6 21-1 6 9 3 19 12 13 11 8 7 9 11 8 11 9 17 4 11 1 10-2 8-6 10-8 6-7 3-8 1-10-2-9-5-6-7-9-19-9-12-10-9-14-9-16-8-24-9-9-8-5-10-1-4v-8l3-10 9-16 7-19 3-14 1-9v-25l-3-18-5-15-7-14-8-10-7-6-19-10-6-7-3-5-2-9v-20l-4-25-5-17-6-15-8-15-9-13-13-15-11-10-16-11-19-10-15-5-12-3-15-2h-24l-19 3-9 3h-14l-19-3h-13l-14 2-18 6-14 8-11 9-9 9-7 11-5 9 2-1h27l11 3 9 7 6 10 1 4v13l-4 10-5 6-8 5-7 2-27 1-15 3-13 5-14 8-12 11-8 9-9 16-5 15-2 9v26l4 16 2 7v13l-4 9-7 8-12 6-12 5-13 8-10 8-1 2h-2l-2 4-9 13-7 15-4 16-1 18 2 15 6 18 6 11 10 13 10 9 13 8 16 9 6 7 4 9v15l-6 12-9 7-9 3h-12l-13-5-16-9-12-9-10-9-13-13-12-17-8-15-8-21-4-18-2-19v-12l2-18 5-21 6-15 8-16 11-16 10-12h2l2-4 11-9 14-10 7-4-1-28 2-21 5-21 6-16 10-19 14-19 16-16 12-9 6-27 7-20 10-19 12-17 12-13 7-7 18-13 16-9 20-8 21-5 25-2 19 1 13 1 24-4z" fill="black"/>
<path transform="translate(462,248)" d="m0 0h12l11 4 5 5 6 8 2 6v15l-5 23-6 20-11 25-9 16-10 14-12 14-14 14-15 11-13 8-14 7v48l3 22 6 20 10 19 9 10 7 6 12 6 15 3h16l18-3 13-5 10-6 8-7 7-10 5-11 4-13 2-13 1-38 1-71 4-11 6-7 12-6 4-1h7l10 3 6 4 5 5 5 9 1 6v61l-1 49-2 16-4 17-6 17-10 19-10 13-9 10-14 11-14 8-14 6-17 5-18 3-12 1h-13l-18-2-16-4-17-7-14-9-10-8-11-11-11-15-7-12-8-19-5-15-5-24-2-20-1-34-25 1-16-2-9-5-6-7-4-8-1-4v-10l4-10 8-9 10-5 5-1 33-1 25-5 16-6 16-9 11-9 4-4h2l2-4 7-8 11-17 8-18 5-15 4-17 3-13 5-9 7-6z" fill="black"/>
<path transform="translate(1456,473)" d="m0 0h15l10 3 9 6 7 7 6 12 2 8v8l-2 10-5 10-8 9-8 5-9 3-5 1h-9l-12-3-11-7-8-10-5-12-1-12 3-12 4-8 9-10 8-5z" fill="black"/>
<path transform="translate(1619,473)" d="m0 0h15l10 3 9 6 8 8 6 13 1 6v10l-4 13-7 10-7 6-10 5-9 2h-9l-12-3-11-7-8-10-5-13v-17l4-11 7-9 7-6 10-5z" fill="black"/>
<path transform="translate(1293,473)" d="m0 0h15l10 3 9 6 7 7 6 12 2 8v8l-3 13-7 11-8 7-10 5-9 2h-9l-12-3-11-7-8-10-5-12v-18l4-11 7-9 7-6 10-5z" fill="black"/>
</svg>
