<svg width="36" height="36" viewBox="0 0 48 48" fill="none" xmlns="http://www.w3.org/2000/svg">
<g clip-path="url(#clip0_49_3492)">
<path d="M6 24C6 26.3638 6.46558 28.7044 7.37017 30.8883C8.27475 33.0722 9.60062 35.0565 11.2721 36.7279C12.9435 38.3994 14.9278 39.7252 17.1117 40.6298C19.2956 41.5344 21.6362 42 24 42C26.3638 42 28.7044 41.5344 30.8883 40.6298C33.0722 39.7252 35.0565 38.3994 36.7279 36.7279C38.3994 35.0565 39.7252 33.0722 40.6298 30.8883C41.5344 28.7044 42 26.3638 42 24C42 21.6362 41.5344 19.2956 40.6298 17.1117C39.7252 14.9278 38.3994 12.9435 36.7279 11.2721C35.0565 9.60062 33.0722 8.27475 30.8883 7.37017C28.7044 6.46558 26.3638 6 24 6C21.6362 6 19.2956 6.46558 17.1117 7.37017C14.9278 8.27475 12.9435 9.60062 11.2721 11.2721C9.60062 12.9435 8.27475 14.9278 7.37017 17.1117C6.46558 19.2956 6 21.6362 6 24Z" stroke="white" stroke-width="2" stroke-linecap="round" stroke-linejoin="round"/>
<path d="M18 20C18 21.5913 18.6321 23.1174 19.7574 24.2426C20.8826 25.3679 22.4087 26 24 26C25.5913 26 27.1174 25.3679 28.2426 24.2426C29.3679 23.1174 30 21.5913 30 20C30 18.4087 29.3679 16.8826 28.2426 15.7574C27.1174 14.6321 25.5913 14 24 14C22.4087 14 20.8826 14.6321 19.7574 15.7574C18.6321 16.8826 18 18.4087 18 20Z" stroke="white" stroke-width="2" stroke-linecap="round" stroke-linejoin="round"/>
<path d="M12.3361 37.698C12.8311 36.0505 13.844 34.6064 15.2246 33.58C16.6051 32.5535 18.2798 31.9995 20.0001 32H28.0001C29.7226 31.9994 31.3993 32.5548 32.7808 33.5836C34.1624 34.6123 35.175 36.0596 35.6681 37.71" stroke="white" stroke-width="2" stroke-linecap="round" stroke-linejoin="round"/>
</g>
<defs>
<clipPath id="clip0_49_3492">
<rect width="48" height="48" fill="white"/>
</clipPath>
</defs>
</svg>
